<svg xmlns="http://www.w3.org/2000/svg" xmlns:xlink="http://www.w3.org/1999/xlink" version="1.1" id="Layer_1" x="0px" y="0px" viewBox="0 0 300 300" style="enable-background:new 0 0 300 300;" xml:space="preserve">
<style type="text/css">
	.st0{fill:#ffa500;}
</style>
<g>
	<g>
		<g>
			<path d="M271.73,145.5c0,0.03,0.01,0.07,0.02,0.1l-0.02-0.14C271.73,145.47,271.73,145.49,271.73,145.5 M232.1,127.61      M61.4,107.63c0,0-33.82,9.22-33.82,9.22l21.19,77.7l38.5-10.5c5.3-1.45,12.75-4.4,18.17-10.23c0.58-0.62,1.05-1.31,1.56-1.98     c1.49,0.58,3.01,1.04,4.55,1.37c-0.46,0.55-2.16,2.63-2.16,2.63l6.14,5.29c4.83,4.34,9.57,7.3,15.32,9.59     c9.17,3.65,18.13,3.98,25.24,0.92c5.73-2.47,10.14-7.09,12.82-13.36c-0.68,5.25-2.07,16.08-2.07,16.08l8.02,1.25v0     c6.41,1.11,11.99,1.11,18.06,0.01c9.71-1.77,17.48-6.25,21.89-12.61c2.44-3.53,3.78-7.72,4.04-12.17     c2.11,0.1,5.66,0.27,6.47,0.31c2.12,1.78,4.52,3.16,7.16,4.06c6.92,2.36,15.08,1.52,23-2.37c4.96-2.44,9.34-6.14,12.31-10.43     c2.84-4.09,4.32-8.59,4.32-13.09c0-0.35-0.01-0.71-0.03-1.06c-0.05-0.91-0.16-1.85-0.34-2.79c-0.11-0.84-0.5-2.42-0.83-3.47     l-0.01-0.04c-0.57-1.72-0.85-2.54-1.2-3.01c-3.09-6.27-7.93-10.81-14.04-13.12c-6.95-2.63-14.89-2.13-22.47,1.29     c0.22-4.54,0.95-19.96,0.95-19.96l-30.06-1.43c0,0-0.76,16.03-0.94,19.77c-2.51,0.46-20.23,3.69-20.28,3.7     c-1.82-0.2-3.66-0.18-5.5,0.16c-3.36,0.61-6.34,2-8.93,4.05c-1.63-0.65-10.88-4.33-10.97-4.37c-1.43-1.12-2.97-2.07-4.64-2.74     c-4.1-1.64-8.44-1.85-12.65-0.75c-5.94-7.06-14.8-10.99-24.01-10.51c-6.21,0.33-12.12,2.62-16.92,6.49     c-1.96-5.89-5.35-10.26-10.14-13C82.32,104.71,73.26,104.4,61.4,107.63z"/>
			<path class="st0" d="M62.37,111.19c10.87-2.97,19.01-2.77,24.89,0.59c4.36,2.49,7.37,6.68,8.95,12.45c0,0,0.26,1.06,0.26,1.06     l0.78,3.16l2.32-2.25c4.5-4.47,10.46-7.11,16.77-7.44c8.42-0.44,16.53,3.3,21.71,10l0.8,1.03l1.23-0.41     c3.75-1.23,7.68-1.1,11.37,0.37c1.6,0.64,3.08,1.54,4.39,2.68l2.17,1.89c0,0,0.15-0.52,0.28-0.95c2.65,1.05,10.8,4.3,10.8,4.3     l0.85-0.76c2.27-2.03,4.99-3.34,8.07-3.9c1.73-0.31,3.45-0.34,5.14-0.08l2.51,0.39c0,0-0.08-0.44-0.14-0.84     c2.99-0.54,21.15-3.86,21.15-3.86s0.84-17.76,0.91-19.02c2.94,0.14,19.76,0.94,22.7,1.08c-0.15,3.07-1.07,22.64-1.07,22.64     l4.51-2.42c6.99-3.44,14.32-4.01,20.64-1.62c5.31,2,9.53,6.01,12.19,11.6l0.17,0.37c0,0,0.02,0.01,0.02,0.01     c0.17,0.45,0.47,1.34,0.64,1.85c0.33,1.07,0.65,2.45,0.7,2.88l0.01,0.07l0.01,0.07c0.15,0.79,0.25,1.57,0.29,2.33     c0.01,0.29,0.02,0.58,0.02,0.86c0,3.74-1.26,7.52-3.66,10.99c-2.62,3.78-6.5,7.05-10.91,9.22c-7.03,3.45-14.2,4.23-20.18,2.19     c-2.39-0.82-4.55-2.08-6.44-3.76l-0.49-0.43L215.23,167l0.03,1.96c0.07,4.48-1.1,8.51-3.49,11.97     c-3.84,5.56-10.78,9.49-19.52,11.08c-5.66,1.03-10.86,1.02-16.88-0.03c-0.01,0-2.64-0.41-4.43-0.69     c0.38-2.92,2.34-18.15,2.34-18.15l-0.83-0.65c-0.6-0.46-1.18-0.97-1.79-1.57l-1.97-1.93l-2.89,7.25     c-2.27,5.7-6.13,9.86-11.16,12.02c-6.21,2.67-14.17,2.33-22.42-0.96c-5.33-2.12-9.72-4.88-14.25-8.94     c-0.02-0.01-2.03-1.75-3.44-2.97c0.89-1.09,4.11-5,4.11-5l-3.44-0.33c-2.76-0.27-5.46-0.98-8.02-2.13l-1.42-0.64l-0.87,1.29     c-0.63,0.95-1.36,1.86-2.15,2.71c-4.83,5.19-11.61,7.86-16.44,9.18c0,0-27.63,7.53-34.95,9.53c-0.9-3.3-18.35-67.29-19.25-70.59     C35.27,118.58,62.37,111.19,62.37,111.19"/>
			<path d="M70.86,164.48l2.68-0.73c3.9-1.06,9.51-2.69,8.05-8.06c-1.49-5.46-7.53-3.72-11.35-2.68l-2.34,0.64L70.86,164.48      M66.31,139.26c3.47-0.94,7.27-2.35,6.04-6.86c-1.33-4.85-5.65-3.3-9.12-2.36l-1.65,0.45l2.55,9.36L66.31,139.26z M35.27,120.72     l27.66-7.54c12.66-3.46,26.4-3.94,30.52,11.14c1.56,5.72,0.24,12.14-4.99,15.52l0.14,0.52c7.79,0.57,13.72,4.54,15.85,12.35     c3.67,13.44-7.57,21.44-19.01,24.56l-32.34,8.82L35.27,120.72z"/>
			<path d="M147.63,156.7c2.81,1.12,5.02-0.52,6.03-3.08c1.02-2.55,0.43-5.53-2.32-6.62c-2.68-1.07-5.39,0.37-6.46,3.05     C143.78,152.8,144.76,155.56,147.63,156.7 M163.12,174.64c-5.26,13.21-18.25,14.26-30.07,9.55c-5.23-2.08-9.35-4.75-13.49-8.48     l-1.43-1.24l8.19-9.98c2.06,3.93,6.2,7.28,10.22,8.88c4.47,1.78,8.45-0.4,10.51-4.47l1.69-3.32l-0.45-0.18     c-3.14,3.04-8.3,3.2-12.2,1.65c-9.26-3.69-10.84-15.12-7.49-23.55c3.36-8.43,12.28-15.6,21.67-11.86     c4.34,1.73,6.85,5.09,7.66,9.56l0.45,0.18l1.48-5.03l15.96,6.36L163.12,174.64z"/>
			<path d="M189.38,157.7c2.97-0.54,3.98-3.1,3.48-5.8c-0.49-2.7-2.57-4.91-5.48-4.38c-2.84,0.52-4.38,3.17-3.87,6.01     C184.05,156.44,186.34,158.26,189.38,157.7 M212.03,164.68c2.55,13.99-7.91,21.77-20.42,24.05c-5.54,1.01-10.45,0.92-15.93-0.03     l-1.86-0.29l1.65-12.81c3.83,2.24,9.12,2.88,13.38,2.11c4.73-0.86,6.95-4.82,6.54-9.36l-0.32-3.71l-0.47,0.09     c-1.04,4.24-5.34,7.12-9.46,7.87c-9.8,1.79-17.21-7.07-18.84-15.99c-1.63-8.93,2.13-19.74,12.07-21.55     c4.6-0.84,8.51,0.69,11.56,4.04l0.48-0.09l-1.41-5.05l16.9-3.08L212.03,164.68z"/>
			<path d="M245.53,143.59c-1.09-2.22-3.7-3.47-5.98-2.35c-2.4,1.18-2.61,3.73-1.49,6.01L245.53,143.59 M241.4,154.04     c1.3,2.66,3.19,5.4,6.52,3.77c1.66-0.82,2.32-2.6,1.87-4.29l15.48-7.61c1.78,8.93-5.25,16.9-12.78,20.59     c-10.3,5.06-22.35,4.39-27.89-6.9c-5.33-10.86-0.27-21.76,10.15-26.88c11.66-5.73,24.54-2.71,29.77,9.96L241.4,154.04z"/>
			<polyline points="227.29,112.65 224.85,164.13 207.55,163.31 209.99,111.83 227.29,112.65    "/>
			<path d="M116.98,133.55c-5.69,0.3-10.05,5.14-9.76,10.83c0.3,5.68,5.14,10.05,10.83,9.75c5.68-0.3,10.05-5.14,9.76-10.82     C127.51,137.62,122.66,133.25,116.98,133.55 M140.52,142.64c0.66,12.7-9.1,23.54-21.8,24.2c-12.7,0.66-23.54-9.1-24.2-21.81     c-0.66-12.71,9.1-23.54,21.81-24.2C129.02,120.18,139.86,129.94,140.52,142.64z"/>
		</g>
	</g>
</g>
</svg>